<mxfile host="app.diagrams.net" agent="Mozilla/5.0 (Windows NT 10.0; Win64; x64) AppleWebKit/537.36 (KHTML, like Gecko) Chrome/129.0.0.0 Safari/537.36 Edg/129.0.0.0" version="24.7.17">
  <diagram name="Page-1" id="Vt-HlPPc47HV6ScULC-i">
    <mxGraphModel dx="1088" dy="590" grid="1" gridSize="10" guides="1" tooltips="1" connect="1" arrows="1" fold="1" page="1" pageScale="1" pageWidth="850" pageHeight="1100" math="0" shadow="0">
      <root>
        <mxCell id="0" />
        <mxCell id="1" parent="0" />
        <mxCell id="_60d9rbxEvKZhjPiycaL-16" value="Tanszék" style="rounded=0;whiteSpace=wrap;html=1;" vertex="1" parent="1">
          <mxGeometry x="40" y="440" width="120" height="60" as="geometry" />
        </mxCell>
        <mxCell id="_60d9rbxEvKZhjPiycaL-17" value="Oktató" style="rounded=0;whiteSpace=wrap;html=1;" vertex="1" parent="1">
          <mxGeometry x="40" y="640" width="120" height="60" as="geometry" />
        </mxCell>
        <mxCell id="_60d9rbxEvKZhjPiycaL-18" value="Tantárgy" style="rounded=0;whiteSpace=wrap;html=1;" vertex="1" parent="1">
          <mxGeometry x="520" y="640" width="120" height="60" as="geometry" />
        </mxCell>
        <mxCell id="_60d9rbxEvKZhjPiycaL-19" value="TSZ-O" style="rhombus;whiteSpace=wrap;html=1;" vertex="1" parent="1">
          <mxGeometry x="60" y="530" width="80" height="80" as="geometry" />
        </mxCell>
        <mxCell id="_60d9rbxEvKZhjPiycaL-20" value="O-TT" style="rhombus;whiteSpace=wrap;html=1;" vertex="1" parent="1">
          <mxGeometry x="310" y="630" width="80" height="80" as="geometry" />
        </mxCell>
        <mxCell id="_60d9rbxEvKZhjPiycaL-21" value="" style="endArrow=classic;html=1;rounded=0;" edge="1" parent="1" target="_60d9rbxEvKZhjPiycaL-17">
          <mxGeometry width="50" height="50" relative="1" as="geometry">
            <mxPoint x="100" y="610" as="sourcePoint" />
            <mxPoint x="150" y="560" as="targetPoint" />
          </mxGeometry>
        </mxCell>
        <mxCell id="_60d9rbxEvKZhjPiycaL-22" value="" style="endArrow=classic;html=1;rounded=0;" edge="1" parent="1">
          <mxGeometry width="50" height="50" relative="1" as="geometry">
            <mxPoint x="100" y="610" as="sourcePoint" />
            <mxPoint x="100" y="630" as="targetPoint" />
          </mxGeometry>
        </mxCell>
        <mxCell id="_60d9rbxEvKZhjPiycaL-23" value="" style="endArrow=classic;html=1;rounded=0;entryX=0.5;entryY=1;entryDx=0;entryDy=0;exitX=0.5;exitY=0;exitDx=0;exitDy=0;" edge="1" parent="1" source="_60d9rbxEvKZhjPiycaL-19" target="_60d9rbxEvKZhjPiycaL-16">
          <mxGeometry width="50" height="50" relative="1" as="geometry">
            <mxPoint x="90" y="540" as="sourcePoint" />
            <mxPoint x="140" y="490" as="targetPoint" />
          </mxGeometry>
        </mxCell>
        <mxCell id="_60d9rbxEvKZhjPiycaL-25" value="" style="endArrow=classic;html=1;rounded=0;entryX=0;entryY=0.5;entryDx=0;entryDy=0;" edge="1" parent="1" target="_60d9rbxEvKZhjPiycaL-18">
          <mxGeometry width="50" height="50" relative="1" as="geometry">
            <mxPoint x="390" y="670" as="sourcePoint" />
            <mxPoint x="440" y="620" as="targetPoint" />
          </mxGeometry>
        </mxCell>
        <mxCell id="_60d9rbxEvKZhjPiycaL-26" value="" style="endArrow=classic;html=1;rounded=0;entryX=1;entryY=0.5;entryDx=0;entryDy=0;" edge="1" parent="1" target="_60d9rbxEvKZhjPiycaL-17">
          <mxGeometry width="50" height="50" relative="1" as="geometry">
            <mxPoint x="310" y="670" as="sourcePoint" />
            <mxPoint x="360" y="620" as="targetPoint" />
          </mxGeometry>
        </mxCell>
        <mxCell id="_60d9rbxEvKZhjPiycaL-27" value="" style="endArrow=classic;html=1;rounded=0;" edge="1" parent="1">
          <mxGeometry width="50" height="50" relative="1" as="geometry">
            <mxPoint x="390" y="670" as="sourcePoint" />
            <mxPoint x="510" y="670" as="targetPoint" />
          </mxGeometry>
        </mxCell>
        <mxCell id="_60d9rbxEvKZhjPiycaL-28" value="" style="endArrow=classic;html=1;rounded=0;" edge="1" parent="1">
          <mxGeometry width="50" height="50" relative="1" as="geometry">
            <mxPoint x="310" y="670" as="sourcePoint" />
            <mxPoint x="170" y="670" as="targetPoint" />
          </mxGeometry>
        </mxCell>
        <mxCell id="_60d9rbxEvKZhjPiycaL-29" value="&lt;b&gt;&lt;u&gt;kód&lt;/u&gt;&lt;/b&gt;" style="ellipse;whiteSpace=wrap;html=1;" vertex="1" parent="1">
          <mxGeometry y="400" width="70" height="30" as="geometry" />
        </mxCell>
        <mxCell id="_60d9rbxEvKZhjPiycaL-30" value="beosztás" style="ellipse;whiteSpace=wrap;html=1;" vertex="1" parent="1">
          <mxGeometry x="160" y="730" width="70" height="30" as="geometry" />
        </mxCell>
        <mxCell id="_60d9rbxEvKZhjPiycaL-31" value="név" style="ellipse;whiteSpace=wrap;html=1;" vertex="1" parent="1">
          <mxGeometry x="80" y="730" width="70" height="30" as="geometry" />
        </mxCell>
        <mxCell id="_60d9rbxEvKZhjPiycaL-32" value="&lt;b&gt;&lt;u&gt;neptunkód&lt;/u&gt;&lt;/b&gt;" style="ellipse;whiteSpace=wrap;html=1;" vertex="1" parent="1">
          <mxGeometry y="730" width="70" height="30" as="geometry" />
        </mxCell>
        <mxCell id="_60d9rbxEvKZhjPiycaL-33" value="&lt;b&gt;&lt;u&gt;neptunkód&lt;/u&gt;&lt;/b&gt;" style="ellipse;whiteSpace=wrap;html=1;" vertex="1" parent="1">
          <mxGeometry x="430" y="730" width="70" height="30" as="geometry" />
        </mxCell>
        <mxCell id="_60d9rbxEvKZhjPiycaL-34" value="név" style="ellipse;whiteSpace=wrap;html=1;" vertex="1" parent="1">
          <mxGeometry x="80" y="400" width="70" height="30" as="geometry" />
        </mxCell>
        <mxCell id="_60d9rbxEvKZhjPiycaL-35" value="kar" style="ellipse;whiteSpace=wrap;html=1;" vertex="1" parent="1">
          <mxGeometry x="160" y="400" width="70" height="30" as="geometry" />
        </mxCell>
        <mxCell id="_60d9rbxEvKZhjPiycaL-36" value="lezár. módja" style="ellipse;whiteSpace=wrap;html=1;" vertex="1" parent="1">
          <mxGeometry x="670" y="730" width="70" height="30" as="geometry" />
        </mxCell>
        <mxCell id="_60d9rbxEvKZhjPiycaL-37" value="kredit" style="ellipse;whiteSpace=wrap;html=1;" vertex="1" parent="1">
          <mxGeometry x="590" y="730" width="70" height="30" as="geometry" />
        </mxCell>
        <mxCell id="_60d9rbxEvKZhjPiycaL-38" value="név" style="ellipse;whiteSpace=wrap;html=1;" vertex="1" parent="1">
          <mxGeometry x="510" y="730" width="70" height="30" as="geometry" />
        </mxCell>
        <mxCell id="_60d9rbxEvKZhjPiycaL-41" value="" style="endArrow=none;html=1;rounded=0;exitX=0.856;exitY=-0.012;exitDx=0;exitDy=0;exitPerimeter=0;entryX=0.31;entryY=0.977;entryDx=0;entryDy=0;entryPerimeter=0;" edge="1" parent="1" source="_60d9rbxEvKZhjPiycaL-16" target="_60d9rbxEvKZhjPiycaL-35">
          <mxGeometry width="50" height="50" relative="1" as="geometry">
            <mxPoint x="150" y="480" as="sourcePoint" />
            <mxPoint x="200" y="430" as="targetPoint" />
          </mxGeometry>
        </mxCell>
        <mxCell id="_60d9rbxEvKZhjPiycaL-42" value="" style="endArrow=none;html=1;rounded=0;" edge="1" parent="1">
          <mxGeometry width="50" height="50" relative="1" as="geometry">
            <mxPoint x="110" y="440" as="sourcePoint" />
            <mxPoint x="110" y="430" as="targetPoint" />
          </mxGeometry>
        </mxCell>
        <mxCell id="_60d9rbxEvKZhjPiycaL-43" value="" style="endArrow=none;html=1;rounded=0;exitX=0.25;exitY=0;exitDx=0;exitDy=0;" edge="1" parent="1" source="_60d9rbxEvKZhjPiycaL-16">
          <mxGeometry width="50" height="50" relative="1" as="geometry">
            <mxPoint x="-10" y="480" as="sourcePoint" />
            <mxPoint x="40" y="430" as="targetPoint" />
          </mxGeometry>
        </mxCell>
        <mxCell id="_60d9rbxEvKZhjPiycaL-44" value="" style="endArrow=none;html=1;rounded=0;exitX=0.5;exitY=0;exitDx=0;exitDy=0;" edge="1" parent="1" source="_60d9rbxEvKZhjPiycaL-32">
          <mxGeometry width="50" height="50" relative="1" as="geometry">
            <mxPoint x="10" y="750" as="sourcePoint" />
            <mxPoint x="60" y="700" as="targetPoint" />
          </mxGeometry>
        </mxCell>
        <mxCell id="_60d9rbxEvKZhjPiycaL-45" value="" style="endArrow=none;html=1;rounded=0;exitX=0.46;exitY=-0.023;exitDx=0;exitDy=0;exitPerimeter=0;" edge="1" parent="1" source="_60d9rbxEvKZhjPiycaL-30">
          <mxGeometry width="50" height="50" relative="1" as="geometry">
            <mxPoint x="90" y="750" as="sourcePoint" />
            <mxPoint x="140" y="700" as="targetPoint" />
          </mxGeometry>
        </mxCell>
        <mxCell id="_60d9rbxEvKZhjPiycaL-46" value="" style="endArrow=none;html=1;rounded=0;exitX=0.5;exitY=0;exitDx=0;exitDy=0;" edge="1" parent="1" source="_60d9rbxEvKZhjPiycaL-31">
          <mxGeometry width="50" height="50" relative="1" as="geometry">
            <mxPoint x="50" y="750" as="sourcePoint" />
            <mxPoint x="100" y="700" as="targetPoint" />
          </mxGeometry>
        </mxCell>
        <mxCell id="_60d9rbxEvKZhjPiycaL-47" value="" style="endArrow=none;html=1;rounded=0;" edge="1" parent="1">
          <mxGeometry width="50" height="50" relative="1" as="geometry">
            <mxPoint x="480" y="730" as="sourcePoint" />
            <mxPoint x="540" y="700" as="targetPoint" />
          </mxGeometry>
        </mxCell>
        <mxCell id="_60d9rbxEvKZhjPiycaL-48" value="" style="endArrow=none;html=1;rounded=0;exitX=0.5;exitY=0;exitDx=0;exitDy=0;" edge="1" parent="1" source="_60d9rbxEvKZhjPiycaL-38">
          <mxGeometry width="50" height="50" relative="1" as="geometry">
            <mxPoint x="510" y="750" as="sourcePoint" />
            <mxPoint x="560" y="700" as="targetPoint" />
          </mxGeometry>
        </mxCell>
        <mxCell id="_60d9rbxEvKZhjPiycaL-49" value="" style="endArrow=none;html=1;rounded=0;exitX=0.5;exitY=0;exitDx=0;exitDy=0;" edge="1" parent="1" source="_60d9rbxEvKZhjPiycaL-37">
          <mxGeometry width="50" height="50" relative="1" as="geometry">
            <mxPoint x="555" y="750" as="sourcePoint" />
            <mxPoint x="605" y="700" as="targetPoint" />
          </mxGeometry>
        </mxCell>
        <mxCell id="_60d9rbxEvKZhjPiycaL-50" value="" style="endArrow=none;html=1;rounded=0;exitX=0.317;exitY=0.027;exitDx=0;exitDy=0;exitPerimeter=0;" edge="1" parent="1" source="_60d9rbxEvKZhjPiycaL-36">
          <mxGeometry width="50" height="50" relative="1" as="geometry">
            <mxPoint x="580" y="750" as="sourcePoint" />
            <mxPoint x="630" y="700" as="targetPoint" />
          </mxGeometry>
        </mxCell>
        <mxCell id="_60d9rbxEvKZhjPiycaL-52" value="tanév/félév" style="ellipse;whiteSpace=wrap;html=1;" vertex="1" parent="1">
          <mxGeometry x="315" y="585" width="70" height="30" as="geometry" />
        </mxCell>
        <mxCell id="_60d9rbxEvKZhjPiycaL-55" value="" style="endArrow=none;html=1;rounded=0;exitX=0.5;exitY=0;exitDx=0;exitDy=0;" edge="1" parent="1" source="_60d9rbxEvKZhjPiycaL-20">
          <mxGeometry width="50" height="50" relative="1" as="geometry">
            <mxPoint x="300" y="665" as="sourcePoint" />
            <mxPoint x="350" y="615" as="targetPoint" />
          </mxGeometry>
        </mxCell>
      </root>
    </mxGraphModel>
  </diagram>
</mxfile>
